<svg width="16" height="10" viewBox="0 0 16 10" fill="none" xmlns="http://www.w3.org/2000/svg">
<g clip-path="url(#clip0_1_9197)">
<path d="M1.71805 9.62667H4.03153V4.85951L0.726562 2.75635V8.78541C0.726562 9.25091 1.17108 9.62667 1.71805 9.62667Z" fill="#4285F4"/>
<path d="M11.9609 9.62667H14.2744C14.823 9.62667 15.2659 9.24951 15.2659 8.78541V2.75635L11.9609 4.85951" fill="#34A853"/>
<path d="M11.9609 1.2145V4.85998L15.2659 2.75682V1.63513C15.2659 0.594769 13.8663 0.00167775 12.8863 0.625615" fill="#FBBC04"/>
<path d="M4.03125 4.85983V1.21436L7.99721 3.73815L11.9632 1.21436V4.85983L7.99721 7.38363" fill="#EA4335"/>
<path d="M0.726562 1.63513V2.75682L4.03153 4.85998V1.2145L3.10614 0.625615C2.12456 0.00167775 0.726562 0.594769 0.726562 1.63513Z" fill="#C5221F"/>
</g>
<defs>
<clipPath id="clip0_1_9197">
<rect width="14.5419" height="9.25391" fill="white" transform="translate(0.726562 0.373047)"/>
</clipPath>
</defs>
</svg>
